<?xml version="1.0" encoding="utf-8"?>
<!-- Generator: Adobe Illustrator 24.3.0, SVG Export Plug-In . SVG Version: 6.00 Build 0)  -->
<svg version="1.1" id="Layer_1" xmlns="http://www.w3.org/2000/svg" xmlns:xlink="http://www.w3.org/1999/xlink" x="0px" y="0px"
	 viewBox="0 0 611.3 551.1" style="enable-background:new 0 0 611.3 551.1;" xml:space="preserve">
<style type="text/css">
	.st0{fill:#1C71CA;}
</style>
<g transform="translate(1.4065934065934016 1.4065934065934016) scale(2.81 2.81)">
	<g>
		<path class="st0" d="M95.9,134.9c-2,0-3.6-1.6-3.6-3.6v-19.6H72.7c-2,0-3.6-1.6-3.6-3.6V83.4c0-2,1.6-3.6,3.6-3.6h19.6V60.2
			c0-2,1.6-3.6,3.6-3.6h12.3l7.9-1.3c-1.9-12-4.3-22.6-7.9-34.4l0,0l-3.3-3.3c-24.1-24.1-63.2-24.1-87.4,0s-24.1,63.2,0,87.4l47,47
			l0,0l43.7,43.7c5.1-20.5,8.4-39.6,10.2-59.6l-10.2-1.2H95.9z"/>
		<path class="st0" d="M198.9,17.6c-24.1-24.1-63.2-24.1-87.4,0l-3.3,3.3l0,0v35.7h12.3c2,0,3.6,1.6,3.6,3.6v19.6h19.6
			c2,0,3.6,1.6,3.6,3.6v24.7c0,2-1.6,3.6-3.6,3.6h-19.6v19.6c0,2-1.6,3.6-3.6,3.6h-12.3v60.8l43.7-43.7l0,0l47-47
			C223.1,80.8,223.1,41.7,198.9,17.6z"/>
	</g>
</g>
</svg>
