<?xml version="1.0" encoding="utf-8"?>
<!-- Generator: Adobe Illustrator 24.3.0, SVG Export Plug-In . SVG Version: 6.00 Build 0)  -->
<svg version="1.1" id="Layer_1" xmlns="http://www.w3.org/2000/svg" xmlns:xlink="http://www.w3.org/1999/xlink" x="0px" y="0px"
	 viewBox="0 0 1183.2 269.1" style="enable-background:new 0 0 1183.2 269.1;" xml:space="preserve">
<style type="text/css">
	.st0{fill:#F9D6B5;}
	.st1{fill:#1C71CA;}
</style>
<g>
	<g transform="translate(1.4065934065934016 1.4065934065934016) scale(2.81 2.81)">
		<g>
			<path class="st0" d="M295.3,67.1c-0.5,0-1-0.4-1-1v-5.4h-5.4c-0.5,0-1-0.4-1-1v-6.8c0-0.5,0.4-1,1-1h5.4v-5.4c0-0.5,0.4-1,1-1
				h3.4l2.2-0.4c-0.5-3.3-1.2-6.2-2.2-9.5l0,0l-0.9-0.9c-6.7-6.7-17.5-6.7-24.1,0s-6.7,17.5,0,24.1l13,13l0,0l12.1,12.1
				c1.4-5.7,2.3-10.9,2.8-16.5l-2.8-0.3H295.3z"/>
			<path class="st0" d="M323.8,34.7c-6.7-6.7-17.5-6.7-24.1,0l-0.9,0.9l0,0v9.9h3.4c0.5,0,1,0.4,1,1v5.4h5.4c0.5,0,1,0.4,1,1v6.8
				c0,0.5-0.4,1-1,1h-5.4v5.4c0,0.5-0.4,1-1,1h-3.4v16.8l12.1-12.1l0,0l13-13C330.4,52.2,330.4,41.4,323.8,34.7z"/>
		</g>
	</g>
	<g transform="translate(1.4065934065934016 1.4065934065934016) scale(2.81 2.81)">
		<g>
			<path class="st1" d="M293,64.7c-0.5,0-1-0.4-1-1v-5.4h-5.4c-0.5,0-1-0.4-1-1v-6.8c0-0.5,0.4-1,1-1h5.4v-5.4c0-0.5,0.4-1,1-1h3.4
				l2.2-0.4c-0.5-3.3-1.2-6.2-2.2-9.5l0,0l-0.9-0.9c-6.7-6.7-17.5-6.7-24.1,0s-6.7,17.5,0,24.1l13,13l0,0l12.1,12.1
				c1.4-5.7,2.3-10.9,2.8-16.5l-2.8-0.3H293z"/>
			<path class="st1" d="M321.4,32.3c-6.7-6.7-17.5-6.7-24.1,0l-0.9,0.9l0,0v9.9h3.4c0.5,0,1,0.4,1,1v5.4h5.4c0.5,0,1,0.4,1,1v6.8
				c0,0.5-0.4,1-1,1h-5.4v5.4c0,0.5-0.4,1-1,1h-3.4v16.8l12.1-12.1l0,0l13-13C328.1,49.8,328.1,39,321.4,32.3z"/>
		</g>
	</g>
	<g>
		<path class="st1" d="M82.5,130.2c13.8,9.3,29.4,20.1,39,39.3c10.5,21.3,8.7,47.4-4.5,65.1c-9.6,13.2-24,20.4-40.5,20.4
			c-3.3,0-6.6-0.3-9.9-0.9c-18-3-47.7-16.2-49.2-70.2h38.7c1.2,29.4,12.6,31.2,17.1,31.8c7.8,1.2,11.1-1.8,12.9-4.2
			c3.9-5.4,5.4-15.9,0.6-25.2c-5.1-10.2-14.7-16.8-25.8-24.6c-5.4-3.6-11.1-7.5-16.5-12c-24.9-20.4-33.3-46.8-23.1-72.3
			c3.6-9.3,9.6-17.1,17.1-22.5c18.9-13.8,53.4-15.6,72.9,3.6c11.4,11.1,17.7,27.9,18.3,47.7H90.9c-0.6-9.6-2.7-20.7-13.2-23.4
			c-7.5-1.8-16.8,1.2-19.8,9c-1.5,3.9-5.4,14.1,12,28.2c4.2,3.6,9,6.9,13.8,10.2H82.5z"/>
		<path class="st1" d="M206.7,186.9l-6.3,13.5V255h-38.7V44.7h38.7v63.6l29.7-63.6h42.6l-42.9,92.4L273.6,255h-41.4L206.7,186.9z"/>
		<path class="st1" d="M309.6,255V45h38.7v210H309.6z"/>
		<path class="st1" d="M502.2,44.4v210.3h-38.7L423,147.6v107.1h-38.7V45.3l-0.3-0.6h41.4l38.1,100.8V44.7L502.2,44.4z"/>
		<path class="st1" d="M687,130.2c13.8,9.3,29.4,20.1,39,39.3c10.5,21.3,8.7,47.4-4.5,65.1c-9.6,13.2-24,20.4-40.5,20.4
			c-3.3,0-6.6-0.3-9.9-0.9c-18-3-47.7-16.2-49.2-70.2h38.7c1.2,29.4,12.6,31.2,17.1,31.8c7.8,1.2,11.1-1.8,12.9-4.2
			c3.9-5.4,5.4-15.9,0.6-25.2c-5.1-10.2-14.7-16.8-25.8-24.6c-5.4-3.6-11.1-7.5-16.5-12c-24.9-20.4-33.3-46.8-23.1-72.3
			c3.6-9.3,9.6-17.1,17.1-22.5c18.9-13.8,53.4-15.6,72.9,3.6c11.4,11.1,17.7,27.9,18.3,47.7h-38.7c-0.6-9.6-2.7-20.7-13.2-23.4
			c-7.5-1.8-16.8,1.2-19.8,9c-1.5,3.9-5.4,14.1,12,28.2c4.2,3.6,9,6.9,13.8,10.2H687z"/>
		<path class="st1" d="M978,83.1v36h42.6v38.7H978V255h-38.7V44.7h99.3v38.7L978,83.1z"/>
		<path class="st1" d="M1104.6,83.7v37.2h42.6v38.7h-42.6v56.7h60.6V255h-99.3V44.7h99.3v39H1104.6z"/>
	</g>
</g>
</svg>
