<?xml version="1.0" encoding="utf-8"?>
<!-- Generator: Adobe Illustrator 24.3.0, SVG Export Plug-In . SVG Version: 6.00 Build 0)  -->
<svg version="1.1" id="Layer_1" xmlns="http://www.w3.org/2000/svg" xmlns:xlink="http://www.w3.org/1999/xlink" x="0px" y="0px"
	 viewBox="0 0 2123.5 1809.1" style="enable-background:new 0 0 2123.5 1809.1;" xml:space="preserve">
<style type="text/css">
	.st0{fill:url(#SVGID_1_);}
	.st1{fill:url(#SVGID_2_);}
	.st2{fill-rule:evenodd;clip-rule:evenodd;fill:url(#SVGID_3_);}
</style>
<g>
	<linearGradient id="SVGID_1_" gradientUnits="userSpaceOnUse" x1="896.6385" y1="896.1517" x2="2031.408" y2="896.1517">
		<stop  offset="2.600000e-07" style="stop-color:#005A8B"/>
		<stop  offset="1" style="stop-color:#000041"/>
	</linearGradient>
	<path class="st0" d="M904.4,1630.5c30.6,11.7,61.7,21.7,93.4,29.7c31.6,8,63.6,14.2,95.9,18.3c64.5,8.2,129.8,8.9,194,1.6
		c128.6-13.9,252.8-60.2,358.8-132.5c26.5-18.1,51.9-37.8,76-58.9c24.1-21.1,47-43.6,68.4-67.4c42.8-47.6,79.7-100.5,109.5-157
		c29.8-56.5,53.2-116.4,68.4-178.4c15.4-62,23-125.8,22.8-189.6c0.1-63.8-7.5-127.7-22.9-189.6c-15.3-62-38.6-121.9-68.5-178.4
		c-29.8-56.5-66.7-109.3-109.5-157c-21.4-23.8-44.3-46.3-68.4-67.4c-24.1-21.2-49.4-40.9-75.9-58.9
		c-106-72.3-230.2-118.6-358.8-132.5c-64.3-7.3-129.5-6.6-194,1.6c-32.2,4.1-64.3,10.2-95.9,18.3c-31.6,7.9-62.8,18-93.4,29.6
		c29.7-13.8,60.4-25.5,91.7-35.4c31.4-9.8,63.4-17.6,95.8-23.4c64.9-11.6,131.4-14.7,197.5-10.1c66.1,4.9,131.7,18.1,194.7,39.2
		c63.1,21.1,123.4,50.6,179.4,86.8c112.3,72.3,205.6,173.8,269.9,291.3c64.2,117.7,97.8,251.8,97.9,385.9
		c-0.2,134.1-33.7,268.2-98,385.9c-64.3,117.5-157.6,219-269.8,291.3c-56,36.2-116.3,65.8-179.4,86.8
		c-63.1,21.1-128.7,34.4-194.7,39.2c-66.1,4.6-132.6,1.5-197.5-10.1c-32.4-5.8-64.5-13.6-95.8-23.4
		C964.8,1656,934.1,1644.3,904.4,1630.5z"/>
	<linearGradient id="SVGID_2_" gradientUnits="userSpaceOnUse" x1="-9.1883" y1="904.5305" x2="2128.1855" y2="904.5305">
		<stop  offset="2.600000e-07" style="stop-color:#005A8B"/>
		<stop  offset="1" style="stop-color:#000041"/>
	</linearGradient>
	<path class="st1" d="M718.5,159.7C789.9,109.5,869,70,952.4,43c83.4-26.9,171-41.4,258.9-42.9c88-1.4,176.3,10.1,261.2,34.4
		c42.4,12.1,84,27.4,124.3,45.8c40.2,18.4,79.1,39.8,116.2,63.9c148.5,96.4,268.5,237.6,338,401.6c35,81.8,57.7,168.9,67.3,257.6
		c9.5,88.6,6.3,178.7-10.3,266.4c-16.5,87.8-46.2,173.1-87.8,252.3c-41.5,79.2-95,152.1-157.8,215.9
		c-62.8,63.8-135,118.3-213.7,161.1c-78.7,42.8-163.8,73.9-251.6,91.8c-87.8,18-178.3,22.6-267.5,14.4
		c-89.2-8.2-177.4-29.6-260.3-63.7c-83-34-160.8-80.4-230.2-137.1c-17.4-14.1-34.2-28.9-50.5-44.3c-4.1-3.8-8.1-7.7-12.1-11.6
		l-6-5.9l-6-6.2c-8-8.4-15.5-16.8-22.8-25.2c-29.1-33.9-55.9-68.4-82.5-103.7l-4.9-6.5l0-8.1l1.6-580.2l1.3-290.1l1.7-290.1
		l19.7,19.7l-183.5-1.2l18.3-15.9c-5,33-13.5,66.5-30.2,97.4c-8.4,15.4-18.7,29.8-31,42.6c-12.2,12.8-26.5,23.7-41.5,32.4
		C180.5,425,147,434.6,114.3,440c-32.8,5.4-65.8,7.3-98.4,7.4l15.4-15.6l-1.6,177.8l-13.2-13.9c20.9,1.3,41.8,1.9,62.7,1.7
		c20.7-0.1,41.4-1.5,61.9-4.2c20.5-2.7,40.8-6.8,60.7-12.2c19.8-5.4,39-12.6,57.6-21.4l16.7-7.9l-0.2,18.2l-2.4,207.5l-2.6,207.5
		l-2.9,207.5l-3.5,207.5l-3.5-207.5L258,984.9l-2.6-207.5L253,569.8l16.5,10.3c-19.5,9.9-40,18.1-61.1,24.3
		c-20.9,6.2-42.3,10.9-63.8,14.1c-21.5,3.3-43.3,5.1-65.1,5.6c-21.5,0.5-43.1,0.3-64.6-0.6l-13.1-0.6l-0.1-13.4L0.1,431.8L0,416.5
		l15.6-0.3c31.4-0.6,62.7-3,93-8.6c30.3-5.5,59.3-14.7,84.5-29.8c25.1-14.9,45.1-36.3,58.7-62.2c13.6-25.7,21-55.5,25.1-85.7
		L279,214l16.1-0.1l183.5-1.2l19.5-0.1l0.1,19.8l1.7,290.1l1.3,290.1l1.6,580.2l-4.8-14.5c26,34.2,52.9,68.5,80.7,100.7
		c7,8,14,15.9,21.1,23.2l5.4,5.5l5.7,5.6c3.8,3.7,7.6,7.4,11.5,11c15.4,14.5,31.4,28.5,47.8,41.9c65.8,53.5,139.4,97.3,217.9,129.4
		c78.5,32,161.6,52.6,246,60.4c84.4,7.9,170.1,3.5,253.2-13.2c83.1-16.6,163.8-45.7,238.5-86c74.7-40.2,143.5-91.5,203.5-151.6
		c60-60.1,111.1-129.1,151.3-204c40.2-74.9,69.2-155.8,85.7-239.3c16.5-83.5,21-169.5,12.9-254.4c-8-84.9-28.7-168.7-61.3-247.7
		c-16.3-39.5-35.5-77.8-57.4-114.5c-21.9-36.8-46.4-71.9-73.5-105.2c-54-66.5-118-125-189.1-173.1c-35.6-24.1-72.9-45.5-111.7-64.1
		c-38.7-18.7-78.9-34.5-120-47.3c-82.3-25.6-168.5-38.8-254.9-39.4c-86.4-0.9-173.2,10.9-256.5,35.3c-41.6,12.2-82.5,27.3-122,45.5
		C793.3,114.9,755.1,135.9,718.5,159.7z"/>
</g>
<linearGradient id="SVGID_3_" gradientUnits="userSpaceOnUse" x1="783.1292" y1="898.7628" x2="1684.5974" y2="898.7628">
	<stop  offset="2.600000e-07" style="stop-color:#005A8B"/>
	<stop  offset="1" style="stop-color:#000041"/>
</linearGradient>
<path class="st2" d="M1185.9,544.7c-169.1,0-306.1,137.1-306.1,306.1s137.1,306.1,306.1,306.1S1492,1019.9,1492,850.8
	S1355,544.7,1185.9,544.7 M783.1,850.8c0-222.5,180.4-402.8,402.9-402.7c222.5,0,402.8,180.4,402.7,402.9
	c0,84.5-26.6,166.9-76,235.5l153.8,153.8c24.7,25.6,24,66.4-1.6,91.1c-25,24.1-64.6,24.1-89.5,0l-153.8-153.8
	c-180.4,130.1-432.2,89.4-562.3-91.1C809.7,1017.8,783.1,935.4,783.1,850.8 M1133.6,643.3c-17.8,0-32.2,14.4-32.2,32.2v90.6h-90.7
	c-17.8,0-32.2,14.4-32.2,32.2v104.7c0,17.8,14.4,32.2,32.2,32.2h90.6v90.8c0,17.8,14.4,32.2,32.2,32.2h104.7
	c17.8,0,32.2-14.4,32.2-32.2v-90.7h90.8c17.8,0,32.2-14.4,32.2-32.2V798.4c0-17.8-14.4-32.2-32.2-32.2h-90.7v-90.6
	c0-17.8-14.4-32.2-32.2-32.2L1133.6,643.3L1133.6,643.3z"/>
</svg>
